<svg width="512" height="512" viewBox="0 0 512 512" fill="none" xmlns="http://www.w3.org/2000/svg">
<path d="M227.4 175.2H246.6C249.987 175.2 253.04 175.8 255.76 177C258.48 178.173 260.64 179.973 262.24 182.4C263.867 184.8 264.68 187.813 264.68 191.44C264.68 195.04 263.867 198.107 262.24 200.64C260.64 203.147 258.48 205.067 255.76 206.4C253.04 207.707 249.987 208.36 246.6 208.36H239.36V228H227.4V175.2ZM239.36 198.92H243.28C244.907 198.92 246.36 198.68 247.64 198.2C248.947 197.72 249.987 196.96 250.76 195.92C251.533 194.853 251.92 193.453 251.92 191.72C251.92 189.96 251.533 188.573 250.76 187.56C249.987 186.52 248.947 185.773 247.64 185.32C246.36 184.867 244.907 184.64 243.28 184.64H239.36V198.92ZM282.299 201.56C282.299 204.573 282.912 207.307 284.139 209.76C285.392 212.187 287.112 214.12 289.299 215.56C291.512 217 294.072 217.72 296.979 217.72C299.885 217.72 302.432 217 304.619 215.56C306.832 214.12 308.552 212.187 309.779 209.76C311.032 207.307 311.659 204.573 311.659 201.56C311.659 198.547 311.032 195.827 309.779 193.4C308.552 190.973 306.832 189.04 304.619 187.6C302.432 186.133 299.885 185.4 296.979 185.4C294.072 185.4 291.512 186.133 289.299 187.6C287.112 189.04 285.392 190.973 284.139 193.4C282.912 195.827 282.299 198.547 282.299 201.56ZM269.859 201.56C269.859 197.72 270.539 194.147 271.899 190.84C273.259 187.507 275.165 184.6 277.619 182.12C280.072 179.64 282.952 177.707 286.259 176.32C289.565 174.933 293.139 174.24 296.979 174.24C300.872 174.24 304.459 174.933 307.739 176.32C311.045 177.707 313.912 179.64 316.339 182.12C318.792 184.6 320.685 187.507 322.019 190.84C323.379 194.147 324.059 197.72 324.059 201.56C324.059 205.427 323.405 209.027 322.099 212.36C320.792 215.667 318.925 218.573 316.499 221.08C314.072 223.56 311.205 225.493 307.899 226.88C304.592 228.267 300.952 228.96 296.979 228.96C292.925 228.96 289.232 228.267 285.899 226.88C282.592 225.493 279.739 223.56 277.339 221.08C274.939 218.573 273.085 215.667 271.779 212.36C270.499 209.027 269.859 205.427 269.859 201.56ZM350.154 174.24C353.434 174.24 356.3 174.6 358.754 175.32C361.207 176.04 363.18 176.8 364.674 177.6C366.167 178.4 367.074 178.933 367.394 179.2L361.634 188.84C361.207 188.52 360.474 188.053 359.434 187.44C358.42 186.827 357.207 186.28 355.794 185.8C354.407 185.32 352.954 185.08 351.434 185.08C349.38 185.08 347.714 185.453 346.434 186.2C345.18 186.92 344.554 188 344.554 189.44C344.554 190.427 344.887 191.32 345.554 192.12C346.247 192.893 347.287 193.64 348.674 194.36C350.087 195.053 351.874 195.813 354.034 196.64C356.007 197.36 357.86 198.213 359.594 199.2C361.327 200.187 362.847 201.36 364.154 202.72C365.487 204.053 366.54 205.6 367.314 207.36C368.087 209.12 368.474 211.12 368.474 213.36C368.474 216.027 367.927 218.347 366.834 220.32C365.74 222.267 364.247 223.88 362.354 225.16C360.487 226.44 358.354 227.387 355.954 228C353.58 228.64 351.114 228.96 348.554 228.96C344.927 228.96 341.674 228.547 338.794 227.72C335.94 226.893 333.634 226 331.874 225.04C330.114 224.08 329.06 223.44 328.714 223.12L334.674 213.08C334.994 213.32 335.607 213.707 336.514 214.24C337.447 214.773 338.58 215.333 339.914 215.92C341.247 216.48 342.66 216.96 344.154 217.36C345.674 217.76 347.167 217.96 348.634 217.96C351.087 217.96 352.927 217.493 354.154 216.56C355.38 215.6 355.994 214.347 355.994 212.8C355.994 211.653 355.607 210.627 354.834 209.72C354.06 208.813 352.9 207.96 351.354 207.16C349.807 206.333 347.874 205.467 345.554 204.56C343.234 203.627 341.06 202.493 339.034 201.16C337.034 199.827 335.407 198.16 334.154 196.16C332.9 194.16 332.274 191.68 332.274 188.72C332.274 185.76 333.1 183.2 334.754 181.04C336.434 178.853 338.634 177.173 341.354 176C344.1 174.827 347.034 174.24 350.154 174.24ZM385.519 185.68H372.919V175.2H410.039V185.68H397.479V228H385.519V185.68ZM411.599 214.96V204.64H432.199V214.96H411.599ZM238.4 280.16L239.28 280.32V322H227.32V269.2H243.64L265.04 310.8L264.16 310.96V269.2H276.12V322H259.72L238.4 280.16ZM295.893 295.56C295.893 298.573 296.506 301.307 297.733 303.76C298.986 306.187 300.706 308.12 302.893 309.56C305.106 311 307.666 311.72 310.573 311.72C313.479 311.72 316.026 311 318.213 309.56C320.426 308.12 322.146 306.187 323.373 303.76C324.626 301.307 325.253 298.573 325.253 295.56C325.253 292.547 324.626 289.827 323.373 287.4C322.146 284.973 320.426 283.04 318.213 281.6C316.026 280.133 313.479 279.4 310.573 279.4C307.666 279.4 305.106 280.133 302.893 281.6C300.706 283.04 298.986 284.973 297.733 287.4C296.506 289.827 295.893 292.547 295.893 295.56ZM283.453 295.56C283.453 291.72 284.133 288.147 285.493 284.84C286.853 281.507 288.759 278.6 291.213 276.12C293.666 273.64 296.546 271.707 299.853 270.32C303.159 268.933 306.733 268.24 310.573 268.24C314.466 268.24 318.053 268.933 321.333 270.32C324.639 271.707 327.506 273.64 329.933 276.12C332.386 278.6 334.279 281.507 335.613 284.84C336.973 288.147 337.653 291.72 337.653 295.56C337.653 299.427 336.999 303.027 335.693 306.36C334.386 309.667 332.519 312.573 330.093 315.08C327.666 317.56 324.799 319.493 321.493 320.88C318.186 322.267 314.546 322.96 310.573 322.96C306.519 322.96 302.826 322.267 299.493 320.88C296.186 319.493 293.333 317.56 290.933 315.08C288.533 312.573 286.679 309.667 285.373 306.36C284.093 303.027 283.453 299.427 283.453 295.56ZM352.316 279.68H339.716V269.2H376.836V279.68H364.276V322H352.316V279.68ZM383.258 269.2H416.978V279.68H395.178V290.44H416.778V300.6H395.178V311.52H416.978V322H383.258V269.2ZM445.232 268.24C448.512 268.24 451.379 268.6 453.832 269.32C456.285 270.04 458.259 270.8 459.752 271.6C461.245 272.4 462.152 272.933 462.472 273.2L456.712 282.84C456.285 282.52 455.552 282.053 454.512 281.44C453.499 280.827 452.285 280.28 450.872 279.8C449.485 279.32 448.032 279.08 446.512 279.08C444.459 279.08 442.792 279.453 441.512 280.2C440.259 280.92 439.632 282 439.632 283.44C439.632 284.427 439.965 285.32 440.632 286.12C441.325 286.893 442.365 287.64 443.752 288.36C445.165 289.053 446.952 289.813 449.112 290.64C451.085 291.36 452.939 292.213 454.672 293.2C456.405 294.187 457.925 295.36 459.232 296.72C460.565 298.053 461.619 299.6 462.392 301.36C463.165 303.12 463.552 305.12 463.552 307.36C463.552 310.027 463.005 312.347 461.912 314.32C460.819 316.267 459.325 317.88 457.432 319.16C455.565 320.44 453.432 321.387 451.032 322C448.659 322.64 446.192 322.96 443.632 322.96C440.005 322.96 436.752 322.547 433.872 321.72C431.019 320.893 428.712 320 426.952 319.04C425.192 318.08 424.139 317.44 423.792 317.12L429.752 307.08C430.072 307.32 430.685 307.707 431.592 308.24C432.525 308.773 433.659 309.333 434.992 309.92C436.325 310.48 437.739 310.96 439.232 311.36C440.752 311.76 442.245 311.96 443.712 311.96C446.165 311.96 448.005 311.493 449.232 310.56C450.459 309.6 451.072 308.347 451.072 306.8C451.072 305.653 450.685 304.627 449.912 303.72C449.139 302.813 447.979 301.96 446.432 301.16C444.885 300.333 442.952 299.467 440.632 298.56C438.312 297.627 436.139 296.493 434.112 295.16C432.112 293.827 430.485 292.16 429.232 290.16C427.979 288.16 427.352 285.68 427.352 282.72C427.352 279.76 428.179 277.2 429.832 275.04C431.512 272.853 433.712 271.173 436.432 270C439.179 268.827 442.112 268.24 445.232 268.24Z" fill="#F0F0F0"/>
<path d="M195.734 324.672C196.232 326.531 194.531 328.232 192.672 327.734L174.667 322.91C172.809 322.412 172.186 320.088 173.547 318.727L186.727 305.547C188.088 304.186 190.412 304.808 190.91 306.667L195.734 324.672Z" fill="#F0F0F0"/>
<rect x="76.4898" y="189.577" width="154.158" height="26.7472" rx="2.5" transform="rotate(45 76.4898 189.577)" fill="#F0F0F0"/>
<rect x="58.9131" y="172" width="19.1051" height="26.7472" rx="2.5" transform="rotate(45 58.9131 172)" fill="#F0F0F0"/>
</svg>
